<?xml version="1.0" encoding="UTF-8"?>
<svg id="Ebene_1" data-name="Ebene 1" xmlns="http://www.w3.org/2000/svg" version="1.1" viewBox="0 0 384.6 259.1">
  <defs>
    <style>
      .cls-1 {
        fill: #000;
      }

      .cls-1, .cls-2 {
        stroke-width: 0px;
      }

      .cls-2 {
        fill: #09e85e;
      }
    </style>
  </defs>
  <polygon class="cls-2" points="356.9 69 331.7 69 331 56 355.7 56 356.9 69"/>
  <polygon class="cls-2" points="358.7 89.1 334.3 89.1 333.6 76.1 357.5 76.1 358.7 89.1"/>
  <polygon class="cls-2" points="360.5 109.2 336.9 109.2 336.2 96.2 359.3 96.2 360.5 109.2"/>
  <polygon class="cls-2" points="362.3 129.3 338.5 129.3 337.8 116.3 361.1 116.3 362.3 129.3"/>
  <polygon class="cls-2" points="364.1 149.4 339.9 149.4 339.2 136.4 362.9 136.4 364.1 149.4"/>
  <path class="cls-1" d="M365.9,172.1c-1.4,0-2.7-1.1-2.8-2.5l-11.9-131.6h-27.6l10.1,111.7c.1,1.5-1,2.9-2.5,3-1.6.1-2.9-1-3-2.5l-10.7-117.9h38.8l12.3,136.6c.1,1.5-1,2.9-2.5,3,0,0-.2,0-.3,0Z"/>
  <polygon class="cls-1" points="349.1 36.4 326.9 36.4 326.5 27.2 348.7 27.2 349.1 36.4"/>
  <path class="cls-1" d="M337.8,32.1c-1.8,0-3.4-1.4-3.5-3.3l-1.7-25.1c-.1-1.9,1.3-3.6,3.3-3.7,1.9-.1,3.6,1.3,3.7,3.3l1.7,25.1c.1,1.9-1.3,3.6-3.3,3.7,0,0-.2,0-.2,0Z"/>
  <path class="cls-1" d="M370.5,7h-68.8c-1.9,0-3.5-1.6-3.5-3.5s1.6-3.5,3.5-3.5h68.8c1.9,0,3.5,1.6,3.5,3.5s-1.6,3.5-3.5,3.5Z"/>
  <path class="cls-1" d="M195.1,218.3c-13,0-23.6-11.4-23.6-25.5s10.6-25.5,23.6-25.5,23.6,11.4,23.6,25.5-10.6,25.5-23.6,25.5ZM195.1,172.7c-10,0-18.2,9-18.2,20.1s8.2,20.1,18.2,20.1,18.2-9,18.2-20.1-8.2-20.1-18.2-20.1Z"/>
  <ellipse class="cls-2" cx="195.1" cy="192.8" rx="9.5" ry="10.4"/>
  <path class="cls-1" d="M345.7,259.1c-19.8,0-35.9-17.9-35.9-39.9s16.1-39.9,35.9-39.9,35.9,17.9,35.9,39.9-16.1,39.9-35.9,39.9ZM345.7,186.3c-15.9,0-28.9,14.8-28.9,32.9s13,32.9,28.9,32.9,28.9-14.8,28.9-32.9-13-32.9-28.9-32.9Z"/>
  <ellipse class="cls-2" cx="345.7" cy="219.2" rx="17.1" ry="19.2"/>
  <path class="cls-1" d="M300.7,229.6l-4.9-1.6-80.5-26.5c-1.8-.6-2.8-2.6-2.2-4.4.6-1.8,2.6-2.8,4.4-2.2l75.9,25c.1-3.6.6-8.9,2-14.9,3.3-14.6,10.4-26,20.4-33.2,24.1-17.1,50.3-6.2,51.4-5.8,1.8.8,2.6,2.8,1.8,4.6-.8,1.8-2.8,2.6-4.6,1.8-.2,0-23.7-9.8-44.6,5-20.9,14.9-19.4,46.6-19.4,47l.3,5.1Z"/>
  <path class="cls-1" d="M283.3,203.5c-.4,0-.7,0-1.1-.2l-53.3-17.4-.5-1.8c-3-11.2-8.6-19.1-16.5-23.5-12.9-7.3-28-3.1-28.1-3-1.9.5-3.8-.5-4.3-2.4-.5-1.9.5-3.8,2.4-4.3.7-.2,18-5.1,33.5,3.6,9.2,5.2,15.7,13.9,19.3,26l49.7,16.2c1.8.6,2.8,2.6,2.2,4.4-.5,1.5-1.9,2.4-3.3,2.4Z"/>
  <g>
    <path class="cls-1" d="M16.2,5.8l27.2,3.4.3,8.6-17.8-2.2.3,8.1,14.3,1.7.3,8.5-14.3-1.7.6,16.6-9.4-1.1-1.6-41.8h.1Z"/>
    <path class="cls-1" d="M48.8,9.9l9.3,1.2,1.6,41.6-9.3-1.1s-1.6-41.7-1.6-41.7Z"/>
    <path class="cls-1" d="M66,12l9.5,1.2,14.8,26.1-1-24.4,9,1.1,1.7,41.5-8.6-1-15.7-27.6,1,25.8-9-1.1-1.6-41.6h-.1Z"/>
    <path class="cls-1" d="M106.1,17l22.3,2.8c5.2.6,7.8,3.5,8,9.1l1,25.1c.2,5.5-2.2,7.9-7.3,7.2l-22.3-2.7s-1.7-41.5-1.7-41.5ZM127.1,52.3c.8,0,1-.2,1-1l-.9-22.1c0-.9-.3-1.2-1.1-1.3l-10.4-1.3,1,24.4s10.4,1.3,10.4,1.3Z"/>
    <path class="cls-1" d="M165.5,52l-13.7-29.4,10,1.2,7.9,18.8,6.4-17,9.8,1.2-11.2,26.3.6,13.5-9.2-1.1-.6-13.5Z"/>
    <path class="cls-1" d="M189.8,60.3l-1.1-25c-.2-5.5,2.1-7.8,7.3-7.2l14.8,1.8c5.2.6,7.7,3.5,7.9,9l1.1,24.9c.2,5.5-2.1,7.8-7.2,7.2l-14.8-1.8c-5.1-.6-7.7-3.6-7.9-9.1v.2ZM209.6,62.3c.8,0,1-.2,1-1l-.9-22c0-.9-.3-1.1-1.1-1.2l-9.6-1.2c-.8,0-1,0-1,1l.9,22c0,.8.3,1.2,1.1,1.2l9.6,1.2Z"/>
    <path class="cls-1" d="M226.5,64.7l-1.4-33,9.1,1.1,1.4,31.3c0,.8.4,1.2,1.1,1.2l8.9,1.1c.8,0,1-.2,1-1l-1.4-31.3,9.1,1.1,1.5,32.9c.2,5.3-2.2,7.8-7.2,7.2l-14.1-1.7c-5-.6-7.7-3.7-7.9-9h-.1Z"/>
    <path class="cls-1" d="M293.4,80.9l-9.4-1.1-7-14.9-5.3-.6.6,14.1-9-1.1-1.8-41,21.2,2.6c5,.6,7.6,3.5,7.9,9l.5,10.2c.2,4.6-1.4,6.9-4.9,7.2l7.2,15.6h0ZM281,57.3c.8,0,1,0,1-1l-.4-8.3c0-.9-.3-1.1-1.1-1.2l-9.6-1.2.5,10.5,9.6,1.2Z"/>
    <path class="cls-1" d="M0,66.8l27.3,3.3.3,8.6-17.9-2.1.3,7.6,14.3,1.7.3,8.5-14.3-1.7.3,8.6,17.9,2.1.3,8.6-27.3-3.2L-.1,66.8h.1Z"/>
    <path class="cls-1" d="M32.8,88.5l19.8,2.3.3,8.6-19.8-2.3-.3-8.6Z"/>
    <path class="cls-1" d="M58.1,107.1l-.2-5.5,9.2,1.1.2,4.2c0,.8.3,1.2,1.1,1.3l8.9,1c.8,0,1.1-.2,1-1l-.2-4.4c0-1-.4-1.3-1.6-1.7l-10.6-3.9c-5.3-2-8.2-3.9-8.4-9.5l-.3-6.9c-.2-5.6,2.2-7.9,7.4-7.3l13.3,1.6c5.2.6,7.8,3.5,8.1,9.1l.2,5-9.2-1.1v-3.8c-.2-.9-.5-1.2-1.3-1.3l-8.1-1c-.8,0-1.1,0-1,1l.2,3.9c0,1,.4,1.3,1.6,1.7l10.6,3.9c5.3,2,8.2,3.9,8.4,9.5l.3,7.3c.2,5.5-2.2,7.9-7.4,7.3l-14.1-1.6c-5.2-.6-7.9-3.6-8.1-9.1v.2Z"/>
    <path class="cls-1" d="M93.6,111.3l-1-25.3c-.2-5.6,2.2-7.9,7.5-7.3l14,1.7c5.2.6,7.7,3.5,8,9.1l.3,7.2-9.3-1.1-.2-5.8c0-.9-.3-1.2-1.1-1.3l-8.7-1c-.8,0-1.1,0-1,1l.9,22.3c0,.8.3,1.2,1.1,1.3l8.7,1c.8,0,1-.2,1-1l-.2-5.8,9.3,1.1.3,7.3c.2,5.5-2.2,7.9-7.4,7.3l-14-1.6c-5.2-.6-7.8-3.6-8.1-9.1h-.1Z"/>
    <path class="cls-1" d="M128.5,115.3l-1-25.2c-.2-5.6,2.2-7.9,7.3-7.3l14.9,1.8c5.2.6,7.8,3.5,8,9.1l1,25.1c.2,5.5-2.1,7.9-7.3,7.3l-15-1.7c-5.2-.6-7.8-3.6-8-9.1h.1ZM148.5,117.3c.8,0,1-.2,1-1l-.9-22.2c0-.9-.3-1.2-1.1-1.3l-9.7-1.2c-.8,0-1,0-1,1l.9,22.2c0,.8.3,1.2,1.1,1.3l9.7,1.1h0Z"/>
    <path class="cls-1" d="M165.1,119.6l-1-25.1c-.2-5.6,2.2-7.9,7.3-7.3l14.9,1.8c5.2.6,7.7,3.5,8,9.1l1.1,25.1c.2,5.5-2.1,7.9-7.3,7.3l-14.9-1.7c-5.2-.6-7.8-3.6-8-9.1h-.1ZM185,121.6c.8,0,1-.2,1-1l-.9-22.1c0-.9-.3-1.1-1.1-1.2l-9.7-1.1c-.8,0-1,0-1,1l.9,22.1c0,.8.3,1.2,1.1,1.2l9.7,1.1Z"/>
    <path class="cls-1" d="M207.9,100.1l-10-1.2-.4-8.6,29.2,3.5.4,8.5-10-1.2,1.4,32.8-9.1-1.1-1.4-32.8h0Z"/>
    <path class="cls-1" d="M231.7,94.4l26.4,3.1.4,8.5-17.3-2,.3,7.5,13.8,1.6.4,8.4-13.8-1.6.4,8.4,17.3,2,.4,8.5-26.4-3.1-1.8-41.3h0Z"/>
    <path class="cls-1" d="M296.2,142.9l-9.4-1.1-7-14.9-5.3-.6.6,14.2-9.1-1-1.8-41.2,21.2,2.5c5.1.6,7.6,3.5,7.9,9l.5,10.3c.2,4.6-1.4,7-4.9,7.3l7.3,15.6h0ZM283.8,119.3c.8,0,1,0,1-1l-.4-8.3c0-.9-.3-1.1-1.1-1.2l-9.6-1.1.5,10.6,9.6,1.1h0Z"/>
  </g>
</svg>