<?xml version="1.0" encoding="UTF-8"?>
<svg id="Ebene_1" data-name="Ebene 1" xmlns="http://www.w3.org/2000/svg" version="1.1" viewBox="0 0 31.2 31.2">
  <defs>
    <style>
      .cls-1 {
        fill: #000;
      }

      .cls-1, .cls-2, .cls-3 {
        stroke-width: 0px;
      }

      .cls-2 {
        fill: #09e85e;
      }

      .cls-3 {
        fill: #fff;
      }
    </style>
  </defs>
  <circle class="cls-2" cx="15.6" cy="15.6" r="15.6"/>
  <g>
    <polygon class="cls-3" points="20.1 11.1 18.2 11.1 18.2 10.2 20 10.2 20.1 11.1"/>
    <polygon class="cls-3" points="20.2 12.6 18.4 12.6 18.4 11.7 20.1 11.7 20.2 12.6"/>
    <polygon class="cls-3" points="20.4 14.1 18.6 14.1 18.6 13.1 20.3 13.1 20.4 14.1"/>
    <polygon class="cls-3" points="20.5 15.6 18.7 15.6 18.7 14.6 20.4 14.6 20.5 15.6"/>
    <polygon class="cls-3" points="20.6 17.1 18.8 17.1 18.8 16.1 20.5 16.1 20.6 17.1"/>
    <path class="cls-1" d="M20.8,18.7c-.1,0-.2,0-.2-.2l-.9-9.7h-2l.7,8.2c0,.1,0,.2-.2.2-.1,0-.2,0-.2-.2l-.8-8.7h2.9l.9,10.1c0,.1,0,.2-.2.2h0,0Z"/>
    <polygon class="cls-1" points="19.5 8.7 17.9 8.7 17.9 8.1 19.5 8.1 19.5 8.7"/>
    <path class="cls-1" d="M18.7,8.4c-.1,0-.3-.1-.3-.2v-1.8c-.1-.1,0-.3.1-.3.1,0,.3,0,.3.2v1.8c.1.1,0,.3-.1.3h0Z"/>
    <path class="cls-1" d="M21.1,6.6h-5.1c-.1,0-.3-.1-.3-.3s.1-.3.3-.3h5.1c.1,0,.3.1.3.3s-.1.3-.3.3Z"/>
    <path class="cls-1" d="M8.2,22.1c-1,0-1.7-.8-1.7-1.9s.8-1.9,1.7-1.9,1.7.8,1.7,1.9-.8,1.9-1.7,1.9ZM8.2,18.8c-.7,0-1.3.7-1.3,1.5s.6,1.5,1.3,1.5,1.3-.7,1.3-1.5-.6-1.5-1.3-1.5Z"/>
    <ellipse class="cls-3" cx="8.2" cy="20.3" rx=".7" ry=".8"/>
    <path class="cls-1" d="M19.3,25.1c-1.5,0-2.6-1.3-2.6-2.9s1.2-2.9,2.6-2.9,2.6,1.3,2.6,2.9-1.2,2.9-2.6,2.9ZM19.3,19.8c-1.2,0-2.1,1.1-2.1,2.4s1,2.4,2.1,2.4,2.1-1.1,2.1-2.4-1-2.4-2.1-2.4h0Z"/>
    <ellipse class="cls-3" cx="19.3" cy="22.2" rx="1.3" ry="1.4"/>
    <path class="cls-1" d="M16,23h-.4c0-.1-5.9-2.1-5.9-2.1-.1,0-.2-.2-.2-.3,0-.1.2-.2.3-.2l5.6,1.8c0-.3,0-.7.1-1.1.2-1.1.8-1.9,1.5-2.4,1.8-1.3,3.7-.5,3.8-.4.1,0,.2.2.1.3,0,.1-.2.2-.3.1,0,0-1.7-.7-3.3.4-1.5,1.1-1.4,3.4-1.4,3.5v.4s0,0,0,0Z"/>
    <path class="cls-1" d="M14.7,21s0,0,0,0l-3.9-1.3h0c-.2-1-.6-1.5-1.2-1.9-.9-.5-2.1-.2-2.1-.2-.1,0-.3,0-.3-.2s0-.3.2-.3c0,0,1.3-.4,2.5.3.7.4,1.2,1,1.4,1.9l3.7,1.2c.1,0,.2.2.2.3,0,.1-.1.2-.2.2Z"/>
  </g>
</svg>